<svg id="Layer_1" data-name="Layer 1" xmlns="http://www.w3.org/2000/svg" viewBox="0 0 544 80"><title>Deska_Website_01</title><path d="M386.8,29.5h-5.1l-3-14.1-3,14.1h-5.1L366,9.4h4.8l2.7,13.9,2.7-13.9h4.9l3,13.9,2.5-13.9h4.7Z"/><path d="M402.1,14.6a7.3,7.3,0,0,1,2.5,1.4,7.2,7.2,0,0,1,1.7,2.4A9,9,0,0,1,407,22a8.8,8.8,0,0,1-.6,3.5,7.1,7.1,0,0,1-1.7,2.5,7.4,7.4,0,0,1-2.5,1.4,9.9,9.9,0,0,1-3,.5,9.6,9.6,0,0,1-3-.5,6.9,6.9,0,0,1-2.5-1.4,6.4,6.4,0,0,1-1.7-2.5,8.3,8.3,0,0,1-.7-3.5,8.6,8.6,0,0,1,.7-3.5,6.5,6.5,0,0,1,1.7-2.4,6.8,6.8,0,0,1,2.5-1.4,9.6,9.6,0,0,1,3-.5A9.9,9.9,0,0,1,402.1,14.6Zm-4.2,3.3a2.5,2.5,0,0,0-1.1.7,3.8,3.8,0,0,0-.7,1.3,7.1,7.1,0,0,0-.2,2,7,7,0,0,0,.2,2,3.4,3.4,0,0,0,.7,1.3,2.1,2.1,0,0,0,1,.7l1.3.2,1.3-.2a2.4,2.4,0,0,0,1-.7,3.7,3.7,0,0,0,.7-1.3,7,7,0,0,0,.2-2,7.1,7.1,0,0,0-.2-2,3.8,3.8,0,0,0-.7-1.3,2.6,2.6,0,0,0-1-.7l-1.3-.2Z"/><path d="M419.6,14.6a7.3,7.3,0,0,1,2.5,1.4,7.2,7.2,0,0,1,1.7,2.4,9,9,0,0,1,.6,3.5,8.8,8.8,0,0,1-.6,3.5,7.1,7.1,0,0,1-1.7,2.5,7.4,7.4,0,0,1-2.5,1.4,9.9,9.9,0,0,1-3,.5,9.6,9.6,0,0,1-3-.5,6.9,6.9,0,0,1-2.5-1.4,6.4,6.4,0,0,1-1.7-2.5,8.3,8.3,0,0,1-.7-3.5,8.6,8.6,0,0,1,.7-3.5,6.5,6.5,0,0,1,1.7-2.4,6.8,6.8,0,0,1,2.5-1.4,9.6,9.6,0,0,1,3-.5A9.9,9.9,0,0,1,419.6,14.6Zm-4.2,3.3a2.5,2.5,0,0,0-1.1.7,3.8,3.8,0,0,0-.7,1.3,7.1,7.1,0,0,0-.2,2,7,7,0,0,0,.2,2,3.4,3.4,0,0,0,.7,1.3,2.1,2.1,0,0,0,1,.7l1.3.2,1.3-.2a2.4,2.4,0,0,0,1-.7,3.7,3.7,0,0,0,.7-1.3,7,7,0,0,0,.2-2,7.1,7.1,0,0,0-.2-2,3.8,3.8,0,0,0-.7-1.3,2.6,2.6,0,0,0-1-.7l-1.3-.2Z"/><path d="M437.3,27.5a4,4,0,0,1-.9,1.1l-1.1.7-1.3.4h-1.3a6.2,6.2,0,0,1-4.7-2.1,6.8,6.8,0,0,1-1.4-2.5,10,10,0,0,1-.5-3.3,10,10,0,0,1,.5-3.3,7.1,7.1,0,0,1,1.4-2.5,5.9,5.9,0,0,1,2.1-1.5,6.3,6.3,0,0,1,2.6-.5H434l1.3.4,1.1.7a4,4,0,0,1,.9,1.1V9.4h4.6V29.5h-4.6Zm-4.3-9.4a3,3,0,0,0-1.1.8,3.8,3.8,0,0,0-.7,1.3,5.3,5.3,0,0,0-.3,1.8,5.3,5.3,0,0,0,.3,1.8,3.8,3.8,0,0,0,.7,1.3,3,3,0,0,0,1.1.8,2.8,2.8,0,0,0,1.3.3l1.3-.2a2.3,2.3,0,0,0,1.1-.7,3.9,3.9,0,0,0,.7-1.3,6.7,6.7,0,0,0,.2-2,6.7,6.7,0,0,0-.2-2,3.9,3.9,0,0,0-.7-1.3,2.8,2.8,0,0,0-1.1-.7l-1.3-.2A2.8,2.8,0,0,0,432.9,18.1Z"/><path d="M459.8,24.8a7.8,7.8,0,0,1-1.3,2.3,7.7,7.7,0,0,1-1.8,1.5,8.5,8.5,0,0,1-2.1.9,8.9,8.9,0,0,1-2.2.3,9.1,9.1,0,0,1-3.3-.6,7.1,7.1,0,0,1-2.6-1.5,6.7,6.7,0,0,1-1.7-2.5,8.4,8.4,0,0,1-.6-3.3,8.1,8.1,0,0,1,.6-3.2,7.4,7.4,0,0,1,1.7-2.5,7.7,7.7,0,0,1,2.5-1.5,8.8,8.8,0,0,1,3.1-.6,7.9,7.9,0,0,1,3.3.7,7.2,7.2,0,0,1,2.5,1.9,8.1,8.1,0,0,1,1.5,2.9,11.1,11.1,0,0,1,.4,3.7h-11a3.5,3.5,0,0,0,.4,1.4,2.7,2.7,0,0,0,.8.9l1.1.6,1.2.2a4.8,4.8,0,0,0,2.1-.4,2.8,2.8,0,0,0,1.2-1.1ZM450,18.3a3,3,0,0,0-1.2,2.1h6.4a2.7,2.7,0,0,0-.9-2.1,3.4,3.4,0,0,0-2.2-.7A3.7,3.7,0,0,0,450,18.3Z"/><path d="M466.8,16.6l.7-.8,1-.7,1.3-.5,1.6-.2a6,6,0,0,1,2.4.4,3.7,3.7,0,0,1,1.5,1.2,5.1,5.1,0,0,1,.8,2,12.9,12.9,0,0,1,.2,2.7v8.9h-4.6V21.7c0-.5,0-1.1,0-1.5a3.9,3.9,0,0,0-.3-1.2,1.9,1.9,0,0,0-.7-.8,2.4,2.4,0,0,0-1.3-.3,2.3,2.3,0,0,0-2.1,1,5.6,5.6,0,0,0-.7,3.1v7.6h-4.6V14.6h4.6Z"/><path d="M371.4,52.9v3.5h9.4v4.2h-9.4v8.2h-4.7V48.8h14.8v4.1Z"/><path d="M387.6,48.8V68.8H383V48.8Z"/><path d="M400.8,54a7.3,7.3,0,0,1,2.5,1.4,7.2,7.2,0,0,1,1.7,2.4,9,9,0,0,1,.6,3.5,8.8,8.8,0,0,1-.6,3.5,7.1,7.1,0,0,1-1.7,2.5,7.4,7.4,0,0,1-2.5,1.4,9.9,9.9,0,0,1-3,.5,9.6,9.6,0,0,1-3-.5,6.9,6.9,0,0,1-2.5-1.4,6.4,6.4,0,0,1-1.7-2.5,8.3,8.3,0,0,1-.7-3.5,8.6,8.6,0,0,1,.7-3.5,6.5,6.5,0,0,1,1.7-2.4,6.8,6.8,0,0,1,2.5-1.4,9.6,9.6,0,0,1,3-.5A9.9,9.9,0,0,1,400.8,54Zm-4.2,3.3a2.5,2.5,0,0,0-1.1.7,3.8,3.8,0,0,0-.7,1.3,7.1,7.1,0,0,0-.2,2,7,7,0,0,0,.2,2,3.4,3.4,0,0,0,.7,1.3,2.1,2.1,0,0,0,1,.7l1.3.2,1.3-.2a2.4,2.4,0,0,0,1-.7,3.7,3.7,0,0,0,.7-1.3,7,7,0,0,0,.2-2,7.1,7.1,0,0,0-.2-2,3.8,3.8,0,0,0-.7-1.3,2.6,2.6,0,0,0-1-.7l-1.3-.2Z"/><path d="M418.3,54a7.3,7.3,0,0,1,2.5,1.4,7.2,7.2,0,0,1,1.7,2.4,9,9,0,0,1,.6,3.5,8.8,8.8,0,0,1-.6,3.5,7.1,7.1,0,0,1-1.7,2.5,7.4,7.4,0,0,1-2.5,1.4,9.9,9.9,0,0,1-3,.5,9.6,9.6,0,0,1-3-.5,6.9,6.9,0,0,1-2.5-1.4,6.4,6.4,0,0,1-1.7-2.5,8.3,8.3,0,0,1-.7-3.5,8.6,8.6,0,0,1,.7-3.5,6.5,6.5,0,0,1,1.7-2.4,6.8,6.8,0,0,1,2.5-1.4,9.6,9.6,0,0,1,3-.5A9.9,9.9,0,0,1,418.3,54Zm-4.2,3.3a2.5,2.5,0,0,0-1.1.7,3.8,3.8,0,0,0-.7,1.3,7.1,7.1,0,0,0-.2,2,7,7,0,0,0,.2,2,3.4,3.4,0,0,0,.7,1.3,2.1,2.1,0,0,0,1,.7l1.3.2,1.3-.2a2.4,2.4,0,0,0,1-.7,3.7,3.7,0,0,0,.7-1.3,7,7,0,0,0,.2-2,7.1,7.1,0,0,0-.2-2,3.8,3.8,0,0,0-.7-1.3,2.6,2.6,0,0,0-1-.7l-1.3-.2Z"/><path d="M434.1,58.2h-.6a3.8,3.8,0,0,0-2.5.7,3,3,0,0,0-.9,2.4v7.5h-4.6V53.9H430v2.8a5.2,5.2,0,0,1,1.5-2.1,4.1,4.1,0,0,1,2.6-.8h.7v4.5Z"/><path d="M436.7,48.8h4.6v3.7h-4.6Zm0,5.2h4.6V68.8h-4.6Z"/><path d="M449.1,55.9l.7-.8,1-.7,1.3-.5,1.6-.2a6,6,0,0,1,2.4.4,3.7,3.7,0,0,1,1.5,1.2,5.1,5.1,0,0,1,.8,2,12.9,12.9,0,0,1,.2,2.7v8.9h-4.6V61c0-.5,0-1.1,0-1.5a3.9,3.9,0,0,0-.3-1.2,1.9,1.9,0,0,0-.7-.8,2.4,2.4,0,0,0-1.3-.3,2.3,2.3,0,0,0-2.1,1,5.6,5.6,0,0,0-.7,3.1v7.6h-4.6V53.9h4.6Z"/><path d="M476.4,66.8a8.4,8.4,0,0,1-.6,3.5,5.9,5.9,0,0,1-1.7,2.2,6.7,6.7,0,0,1-2.4,1.2,12.5,12.5,0,0,1-2.9.3,9.7,9.7,0,0,1-3-.4,7.7,7.7,0,0,1-2.2-1.1,5.5,5.5,0,0,1-1.5-1.6,5.3,5.3,0,0,1-.7-2h4.3a2.4,2.4,0,0,0,1.1,1.4,4,4,0,0,0,2,.5,3.2,3.2,0,0,0,2.5-.8,3.4,3.4,0,0,0,.7-2.3V66A4.1,4.1,0,0,1,471,67l-1.2.7-1.3.4h-1.3a6.7,6.7,0,0,1-2.6-.5,5.3,5.3,0,0,1-2.1-1.4,6.4,6.4,0,0,1-1.4-2.3,9.1,9.1,0,0,1-.5-3.1,9.2,9.2,0,0,1,.5-3.2,6.3,6.3,0,0,1,1.4-2.3,6,6,0,0,1,2.1-1.4,7.3,7.3,0,0,1,2.6-.5h1.3l1.3.4,1.2.7a4.1,4.1,0,0,1,.9,1.1v-2h4.5Zm-8.9-9.5a2.7,2.7,0,0,0-1.1.7,3.1,3.1,0,0,0-.7,1.2,5.5,5.5,0,0,0,0,3.4,3.2,3.2,0,0,0,.7,1.2,2.7,2.7,0,0,0,1.1.7l1.3.2,1.3-.2a2.6,2.6,0,0,0,1.1-.6,3.3,3.3,0,0,0,.7-1.2,5.5,5.5,0,0,0,.2-1.8,5.6,5.6,0,0,0-.2-1.8,3.5,3.5,0,0,0-.7-1.2,2.6,2.6,0,0,0-1.1-.6l-1.3-.2Z"/><rect x="366" y="39.2" width="178" height="1.45"/><rect x="366" y="78.4" width="178" height="1.45"/><rect x="366" width="178" height="1.45"/><path d="M137.1,59.6l-.2.8a30.8,30.8,0,0,1-5.1,8.9,31.5,31.5,0,0,1-6.9,6,32.9,32.9,0,0,1-8.2,3.7A34.6,34.6,0,0,1,108,80a35.5,35.5,0,0,1-13-2.2,27.8,27.8,0,0,1-10-6,26.1,26.1,0,0,1-6.5-9.6,32.6,32.6,0,0,1-2.4-13,31.8,31.8,0,0,1,2.5-12.6A29,29,0,0,1,85.3,27a29.9,29.9,0,0,1,9.9-6,34.2,34.2,0,0,1,12-2.2,30.8,30.8,0,0,1,13,2.6,28,28,0,0,1,9.7,7.2,31.7,31.7,0,0,1,5.8,11.2,43.3,43.3,0,0,1,1.4,14.3H94a13.7,13.7,0,0,0,1.4,5.4,10.3,10.3,0,0,0,3.1,3.7,13.8,13.8,0,0,0,4.1,2.3,14.1,14.1,0,0,0,4.8.8,18.7,18.7,0,0,0,8.3-1.6,10.6,10.6,0,0,0,5.2-5ZM98.8,35c-2.5,1.7-4,4.5-4.5,8.3h25.2c-.1-3.7-1.4-6.4-3.7-8.2a13.2,13.2,0,0,0-8.5-2.7A14.4,14.4,0,0,0,98.8,35Z"/><path d="M25.9,0A80.4,80.4,0,0,1,43.9,1.9,39.4,39.4,0,0,1,58.4,8.4a31.5,31.5,0,0,1,9.7,12c2.4,5.1,3.6,11.3,3.6,18.7s-1.2,13.7-3.6,18.7A31,31,0,0,1,58.4,70a39.4,39.4,0,0,1-14.5,6.5,80.4,80.4,0,0,1-18.1,1.9H0V0ZM50,26.7a16.7,16.7,0,0,0-5.7-7.1A20.5,20.5,0,0,0,36,16.3a58.6,58.6,0,0,0-9.8-.8H18.5V62.9h7.7a58.6,58.6,0,0,0,9.8-.8,19.2,19.2,0,0,0,8.2-3.4A16.7,16.7,0,0,0,50,51.6c1.4-3.1,2.2-7.2,2.2-12.4S51.4,29.9,50,26.7Z"/><path d="M181.1,37.5a6.1,6.1,0,0,0-4-4.4,21.4,21.4,0,0,0-7.3-1.2c-6.2,0-9.3,1.4-9.3,4.3a3.6,3.6,0,0,0,1.7,3.2,15.9,15.9,0,0,0,5.4,1.9l10.8,1.9c7,1.3,12.2,3.1,15.6,5.6s5.1,6.3,5.1,11.3a16.9,16.9,0,0,1-2.1,8.5,18,18,0,0,1-5.9,6.2,30,30,0,0,1-8.9,3.8,52.7,52.7,0,0,1-11.2,1.2,46.7,46.7,0,0,1-10.6-1.2,26.4,26.4,0,0,1-8.6-3.9,20.4,20.4,0,0,1-6.2-6.4,22.7,22.7,0,0,1-3.1-8.9h16.5a8.2,8.2,0,0,0,4.4,5.7,16.6,16.6,0,0,0,7.8,1.6,20.1,20.1,0,0,0,7.8-1.3c2.1-.9,3-2.2,3-3.9a3.8,3.8,0,0,0-1.9-3.2,20.7,20.7,0,0,0-7.1-2.2l-10.4-1.7c-5.6-1-10.2-2.8-13.6-5.7s-5.3-6.9-5.3-12.1a14.1,14.1,0,0,1,2.2-7.7,16.8,16.8,0,0,1,5.7-5.6,28.8,28.8,0,0,1,8.5-3.5,43.6,43.6,0,0,1,10.2-1.2,46.8,46.8,0,0,1,9.6,1,29.8,29.8,0,0,1,8.3,3.3,22.7,22.7,0,0,1,6.3,5.7,20.8,20.8,0,0,1,3.3,8.5Z"/><path d="M263.5,20.3,242.8,42.6l22.5,35.9H244.4L230.7,55.5l-7.8,8.3V78.4H205.1V0h17.8V42.5l19.5-22.1Z"/><path d="M303.8,39.9c0-3.5-.9-5.8-2.5-7.2s-4.1-2.1-7.3-2.1a11.1,11.1,0,0,0-7,2.2,9,9,0,0,0-3.3,6.4H266.9a19.1,19.1,0,0,1,2.4-7.9,21.9,21.9,0,0,1,5.7-6.6,32.5,32.5,0,0,1,8.9-4.5,37.8,37.8,0,0,1,11.6-1.6,43.1,43.1,0,0,1,11.1,1.3,22.1,22.1,0,0,1,8.2,4.3,18,18,0,0,1,5.1,7.6A31.8,31.8,0,0,1,321.4,43l-.2,12.6v6c0,2.2.1,4.3.2,6.4s.2,4,.4,5.8a24,24,0,0,0,.6,4.6H305l-.2-7a17.4,17.4,0,0,1-8.2,6.6,33.7,33.7,0,0,1-11.3,1.8,26.6,26.6,0,0,1-7.8-1.2,18.2,18.2,0,0,1-6.4-3.5,14.6,14.6,0,0,1-4.3-5.3,15.1,15.1,0,0,1-1.6-7.1,14,14,0,0,1,2.9-9,20.3,20.3,0,0,1,8-6,48,48,0,0,1,12.2-3.7,152.6,152.6,0,0,1,15.6-1.9Zm.4,12.7-8.4,1a31.4,31.4,0,0,0-6.6,1.5,11.1,11.1,0,0,0-4.2,2.5,5.7,5.7,0,0,0-1.5,3.9,5.4,5.4,0,0,0,2.4,4.5,9.6,9.6,0,0,0,5.8,1.7,17.9,17.9,0,0,0,5-.6,9.9,9.9,0,0,0,4-2.3,10,10,0,0,0,2.6-4.2,18.8,18.8,0,0,0,1-6.6Z"/></svg>