<svg id="Layer_1" data-name="Layer 1" xmlns="http://www.w3.org/2000/svg" viewBox="0 0 300 150"><title>Deska_Website_01</title><path d="M257.8,34.7h25l16.4,28.1.9-.5L283.9,34.7H300v-1H284.1L300,10.9l-.8-.6L282.9,33.7h-25L280.9.6l-.8-.6L256.7,33.7H231L254,.6l-.8-.6L229.8,33.7H204L227,.6l-.8-.6L202.8,33.7H177L200,.6l-.8-.6L175.8,33.7H150L173,.6l-.8-.6L148.8,33.7H123.1L146.1.6l-.8-.6L121.9,33.7H96.1L119.1.6l-.8-.6L94.9,33.7H69.1L92.1.6,91.3,0,67.9,33.7H42.2L65.1.6,64.3,0,40.9,33.7H15.2L38.2.6,37.4,0,14,33.7H.4v1H13.9L37,74.3H14.4L1,51.3l-.9.5L13.3,74.3H.4v1H13.4L0,98.2l.9.5L14.5,75.3H37.1L14,114.9H.4v1H13.9L37.5,150l.8-.6L15.1,115.9H40.8L64.5,150l.8-.6L42,115.9H67.8L91.5,150l.8-.6L69,115.9H94.8L118.4,150l.8-.6L96,115.9h25.8L145.4,150l.8-.6L123,115.9h25.8L172.4,150l.8-.6L150,115.9h25.7L199.4,150l.8-.6-23.3-33.5h25.8L226.3,150l.8-.6-23.3-33.5h25.8L253.3,150l.8-.6-23.2-33.5h25.7L280.3,150l.8-.6-23.3-33.5h24.9l16.4,23.6.8-.6-16-23.1h16v-1H284l16-27.4-.9-.5-16.3,27.9h-25L281,75.3h19v-1H280.9Zm-1.2,0,23.1,39.6H253.9L230.8,34.7Zm-27,0,23.1,39.6H226.9L203.8,34.7Zm-27,0,23.1,39.6H200L176.9,34.7Zm-27,0,23.1,39.6H173L149.9,34.7Zm-27,0,23.1,39.6H146L122.9,34.7Zm-27,0,23.1,39.6H119L95.9,34.7Zm-27,0,23.1,39.6H92.1L69,34.7Zm-27,0L90.9,74.3H65.1L42,34.7ZM15,34.7H40.8L63.9,74.3H38.1Zm25.9,80.3H15.1L38.2,75.3H64Zm27,0H42.1L65.2,75.3H91Zm27,0H69.1L92.2,75.3H118Zm27,0H96l23.1-39.6h25.8Zm27,0H123l23.1-39.6h25.8Zm27,0H150l23.1-39.6h25.8Zm27,0H177L200,75.3h25.8Zm27,0H203.9L227,75.3h25.9Zm27,0H230.9L254,75.3h25.8Z"/><rect x="-4.5" y="9.5" width="23.6" height="1" transform="translate(-5.1 10.3) rotate(-55.2)"/><rect x="6.8" y="127.7" width="1" height="24.22" transform="translate(-78.4 29.2) rotate(-34.8)"/></svg>