<svg id="Layer_1" data-name="Layer 1" xmlns="http://www.w3.org/2000/svg" viewBox="0 0 221.7 55"><title>Deska_Website_01_Ipad</title><path d="M94.3,41v.5a21.2,21.2,0,0,1-3.5,6.1,21.6,21.6,0,0,1-4.8,4.2,22.6,22.6,0,0,1-5.6,2.5,23.8,23.8,0,0,1-6,.7,24.4,24.4,0,0,1-8.9-1.5,19.1,19.1,0,0,1-6.9-4.2A17.9,17.9,0,0,1,54,42.7a22.4,22.4,0,0,1-1.6-8.9A21.8,21.8,0,0,1,54,25.2a20,20,0,0,1,4.6-6.6,20.6,20.6,0,0,1,6.8-4.2,23.5,23.5,0,0,1,8.2-1.5,21.2,21.2,0,0,1,8.9,1.8,19.2,19.2,0,0,1,6.7,5,21.8,21.8,0,0,1,4,7.7,29.8,29.8,0,0,1,1,9.8H64.7a9.4,9.4,0,0,0,1,3.7,7.1,7.1,0,0,0,2.2,2.5A9.5,9.5,0,0,0,70.6,45a9.7,9.7,0,0,0,3.3.5,12.9,12.9,0,0,0,5.7-1.1A7.3,7.3,0,0,0,83.1,41ZM67.9,24a8,8,0,0,0-3.1,5.7H82.1a7.1,7.1,0,0,0-2.5-5.6,9.1,9.1,0,0,0-5.9-1.9A9.9,9.9,0,0,0,67.9,24Z"/><path d="M17.8,0A55.3,55.3,0,0,1,30.2,1.3a27.1,27.1,0,0,1,10,4.5,21.6,21.6,0,0,1,6.7,8.3,30.1,30.1,0,0,1,2.5,12.9,29.9,29.9,0,0,1-2.5,12.9,21.3,21.3,0,0,1-6.7,8.3,27.1,27.1,0,0,1-10,4.5,55.3,55.3,0,0,1-12.4,1.3H0V0ZM34.4,18.4a11.5,11.5,0,0,0-3.9-4.9,14.1,14.1,0,0,0-5.7-2.2,40.3,40.3,0,0,0-6.8-.5H12.7V43.2H18a40.3,40.3,0,0,0,6.8-.5,13.2,13.2,0,0,0,5.7-2.3,11.5,11.5,0,0,0,3.9-4.9,21,21,0,0,0,1.5-8.6A21,21,0,0,0,34.4,18.4Z"/><path d="M124.5,25.7a4.2,4.2,0,0,0-2.7-3,14.7,14.7,0,0,0-5-.8c-4.2,0-6.4,1-6.4,3a2.5,2.5,0,0,0,1.2,2.2,10.9,10.9,0,0,0,3.7,1.3l7.4,1.3c4.8.9,8.4,2.2,10.7,3.9s3.5,4.3,3.5,7.8a11.6,11.6,0,0,1-1.4,5.9,12.4,12.4,0,0,1-4.1,4.2,20.7,20.7,0,0,1-6.1,2.6,36.2,36.2,0,0,1-7.7.8,32.1,32.1,0,0,1-7.3-.8,18.1,18.1,0,0,1-5.9-2.7,14,14,0,0,1-4.2-4.4A15.6,15.6,0,0,1,97.9,41h11.4a5.6,5.6,0,0,0,3,3.9,11.4,11.4,0,0,0,5.3,1.1,13.9,13.9,0,0,0,5.3-.9,2.8,2.8,0,0,0,2.1-2.7,2.6,2.6,0,0,0-1.3-2.2,14.2,14.2,0,0,0-4.9-1.5l-7.1-1.2a19.3,19.3,0,0,1-9.4-3.9,10.1,10.1,0,0,1-3.6-8.3,9.7,9.7,0,0,1,1.5-5.3,11.5,11.5,0,0,1,3.9-3.9,19.8,19.8,0,0,1,5.9-2.4,30,30,0,0,1,7-.8,32.2,32.2,0,0,1,6.6.7,20.5,20.5,0,0,1,5.7,2.3,15.6,15.6,0,0,1,4.3,3.9,14.3,14.3,0,0,1,2.3,5.9Z"/><path d="M181.2,14,166.9,29.3l15.4,24.6H168l-9.4-15.7-5.3,5.7v10H141V0h12.3V29.2L166.7,14Z"/><path d="M208.8,27.5c0-2.4-.6-4-1.7-5a9.1,9.1,0,0,0-9.9.1,6.2,6.2,0,0,0-2.3,4.4H183.5a13.1,13.1,0,0,1,1.6-5.4,15.1,15.1,0,0,1,3.9-4.5,22.4,22.4,0,0,1,6.1-3.1,26,26,0,0,1,7.9-1.1,29.6,29.6,0,0,1,7.6.9,15.2,15.2,0,0,1,5.6,3,12.4,12.4,0,0,1,3.5,5.2,21.9,21.9,0,0,1,1,7.7V42.4c0,1.5.1,3,.1,4.4s.1,2.7.3,4a16.5,16.5,0,0,0,.4,3.2h-12V49.1a11.9,11.9,0,0,1-5.6,4.5,23.2,23.2,0,0,1-7.8,1.3,18.3,18.3,0,0,1-5.3-.8,12.5,12.5,0,0,1-4.4-2.4,10.1,10.1,0,0,1-3-3.6,10.4,10.4,0,0,1-1.1-4.9,9.6,9.6,0,0,1,2-6.2,14,14,0,0,1,5.5-4.2,33,33,0,0,1,8.4-2.5A104.9,104.9,0,0,1,208.8,29Zm.3,8.8-5.8.7a21.6,21.6,0,0,0-4.5,1,7.7,7.7,0,0,0-2.9,1.7,3.9,3.9,0,0,0-1,2.7,3.7,3.7,0,0,0,1.6,3.1,6.6,6.6,0,0,0,4,1.2,12.3,12.3,0,0,0,3.4-.4,6.8,6.8,0,0,0,2.7-1.6,6.9,6.9,0,0,0,1.8-2.9,12.9,12.9,0,0,0,.7-4.5Z"/></svg>