<svg id="Layer_1" data-name="Layer 1" xmlns="http://www.w3.org/2000/svg" viewBox="0 0 300 150"><title>Deska_Website_01</title><path d="M300,33.9H275.8L299.9,9.2l-.7-.7L274.4,33.9H248.7L281.4.7l-.7-.7L247.3,33.9H221.7L254.3.7l-.7-.7L220.3,33.9H194.6L227.3.7l-.7-.7L193.2,33.9H167.5L200.2.7l-.7-.7L166.1,33.9H140.5L173.1.7l-.7-.7L139.1,33.9H113.4L146.1.7l-.7-.7L112,33.9H86.4L119,.7l-.7-.7L85,33.9H59.3L92,.7,91.2,0,57.9,33.9H32.2L64.9.7,64.2,0,30.8,33.9H5.2L37.8.7,37.1,0,3.8,33.9H0v1H3.8L43.7,74.7H18.1L.8,57.5l-.7.7L16.7,74.7H0v1H16.7L.1,92.2l.7.7L18.1,75.7H43.7L3.8,115.5H0v1H3.8L37.1,150l.7-.7L5.2,116.5H30.8L64.2,150l.7-.7L32.2,116.5H57.9L91.2,150l.7-.7L59.3,116.5H85L118.3,150l.7-.7L86.4,116.5H112L145.4,150l.7-.7-32.7-32.8h25.7L172.4,150l.7-.7-32.6-32.8h25.6L199.5,150l.7-.7-32.7-32.8h25.7L226.6,150l.7-.7-32.7-32.8h25.7L253.6,150l.7-.7-32.6-32.8h25.6L280.7,150l.7-.7-32.7-32.8h25.7l24.8,25.4.7-.7-24.1-24.7H300v-1H275.9l24-23.9-.7-.7-24.8,24.7H248.8l39.9-39.8H300v-1H288.7L248.8,34.9h25.6l24.8,24.7.7-.7-24-23.9H300Zm-79.7,1,39.9,39.8H234.6L194.7,34.9Zm-27.1,0,39.9,39.8H207.5L167.6,34.9Zm-27.1,0,39.9,39.8H180.5L140.6,34.9Zm-27.1,0,39.9,39.8H153.4L113.5,34.9Zm-27.1,0L152,74.7H126.3L86.4,34.9ZM85,34.9l39.9,39.8H99.3L59.4,34.9Zm-27.1,0L97.9,74.7H72.2L32.3,34.9Zm-52.7,0H30.9L70.8,74.7H45.2Zm25.6,80.5H5.2L45.2,75.7H70.8Zm27.1,0H32.3L72.2,75.7H97.9Zm27.1,0H59.4L99.3,75.7h25.6Zm27.1,0H86.4l39.9-39.8H152Zm27.1,0H113.5l39.9-39.8h25.6Zm27.1,0H140.6l39.9-39.8h25.6Zm27.1,0H167.6l39.9-39.8h25.6Zm27.1,0H194.7l39.9-39.8h25.6Zm27.1,0H221.7l39.9-39.8h25.6Zm39.9-40.8H261.7L221.7,34.9h25.6Z"/><rect x="-1.6" y="4.8" width="14.1" height="1" transform="translate(-2.2 5.4) rotate(-44.9)"/><polygon points="0.1 140.5 10.1 150 10.8 149.3 0.8 139.7 0.1 140.5"/></svg>