<svg id="Layer_1" data-name="Layer 1" xmlns="http://www.w3.org/2000/svg" viewBox="0 0 300 150"><title>Deska_Website_01</title><path d="M300,18.6v-1H214.2V0h-1V17.6H86.1V0h-1V17.6H0v1H21.3V37.2H0v1H85.1V56H0v1H21.3V74.9H0v1H85.1V93.7H0v1H21.3v18.6H0v1H85.1v17.8H0v1H21.3V150h1V133.1H149.5V150h1V133.1H277.7V150h1V133.1H300v-1H214.2V114.3H300v-1H278.7V94.7H300v-1H214.2V75.9H300v-1H278.7V57H300V56H214.2V38.2H300v-1H278.7V18.6ZM22.3,37.2V18.6H149.5V37.2Zm190.9,1V56H86.1V38.2ZM22.3,74.9V57H149.5V74.9Zm190.9,1V93.7H86.1V75.9ZM22.3,113.3V94.7H149.5v18.6Zm190.9,18.8H86.1V114.3H213.2Zm64.4-37.4v18.6H150.5V94.7Zm0-37.7V74.9H150.5V57Zm0-19.8H150.5V18.6H277.7Z"/></svg>